<svg id="artwork" xmlns="http://www.w3.org/2000/svg" viewBox="0 0 792 612"><defs><style>.cls-1{fill:#fff;}.cls-2{fill:#f60;}</style></defs><rect class="cls-1" x="296.44" y="242.6" width="199.13" height="126.8"/><rect class="cls-2" x="458.8" y="332.64" width="9.19" height="9.19"/><polygon class="cls-2" points="440.15 291.71 445.63 332.8 451.09 291.71 459.62 291.71 451.64 341.84 439.51 341.84 431.62 291.71 440.15 291.71"/><path class="cls-2" d="M328.72,291.71H324v6.66h4.73v43.47H337V298.37h5.84v-6.66H337V281.52a4.9,4.9,0,0,1,1-3.41,4.34,4.34,0,0,1,3.32-1.14h1.5v-6.81h-3c-3.7,0-7.25.78-8.95,2.39s-2.2,4.1-2.2,7.66Z"/><rect class="cls-2" x="345.48" y="291.71" width="8.33" height="50.13"/><path class="cls-2" d="M392.29,319.61h17.38V304.16c0-9.24-4.47-13-12.88-13-8.76,0-12.86,3.78-12.86,13.09v25.39c0,8.47,5.15,12.85,12.85,12.85s12.87-3.6,12.89-12.85v-4h-8.05v4.75c0,3.4-1.27,5.74-4.68,5.74s-4.66-2.36-4.66-5.74Zm0-17.11c0-2.83.74-5.76,4.63-5.76s4.69,2.89,4.69,5.75v10.36h-9.32Z"/><path class="cls-2" d="M372.55,313.34c-6.28-5.54-6.81-6.29-6.81-10.38,0-3.48.3-5.61,3.43-5.61s3.54,2.1,3.54,5.65v4.63h8v-7.55c0-5.93-4.59-8.95-11.75-8.95S357.34,293.48,357.3,303c0,1.61,0,1.61,0,1,0,3,0,7.7,7.4,14l2.11,1.8c5.42,4.58,6,5.14,6,10.58,0,3.35-.21,5.9-3.73,5.9s-3.74-2.56-3.74-4.15V325.7H356.9v6.62c0,8.14,5.3,10.16,12.16,10.16s12.18-2,12.18-12.52v-.87C381.22,321.77,379.9,319.81,372.55,313.34Z"/><path class="cls-2" d="M420.82,296.87v-5.16h-7.59v50.13h8.19V306.9c0-2.7.88-4.48,2.41-5.53a9.6,9.6,0,0,1,5.51-1.37v-8.87c-4.35.09-6.23.95-8.43,5.55Z"/></svg>