<svg xmlns="http://www.w3.org/2000/svg" viewBox="0 0 24 22"><defs><style>.cls-1{fill:#f60;}</style></defs><g id="Layer_2" data-name="Layer 2"><g id="Text"><g id="Interface-Essential_Dashboard_pie-line-graph-desktop" data-name="Interface-Essential / Dashboard / pie-line-graph-desktop"><g id="Group_19" data-name="Group 19"><g id="pie-line-graph-desktop"><path class="cls-1" d="M7,11.5a4,4,0,1,1,4-4A4,4,0,0,1,7,11.5Zm0-7a3,3,0,1,0,3,3A3,3,0,0,0,7,4.5Z"/><path class="cls-1" d="M10.5,8H7a.5.5,0,0,1-.5-.5V4a.5.5,0,0,1,1,0V7h3a.5.5,0,0,1,0,1Z"/><path d="M9,22a.51.51,0,0,1-.31-.11.49.49,0,0,1-.08-.7A6.44,6.44,0,0,0,10,17.48a.49.49,0,0,1,.52-.48.5.5,0,0,1,.48.52,7.43,7.43,0,0,1-1.61,4.29A.48.48,0,0,1,9,22Z"/><path d="M15,22a.48.48,0,0,1-.39-.19A7.43,7.43,0,0,1,13,17.52a.5.5,0,1,1,1,0,6.44,6.44,0,0,0,1.39,3.71.49.49,0,0,1-.08.7A.51.51,0,0,1,15,22Z"/><path d="M16.5,22h-9a.5.5,0,0,1,0-1h9a.5.5,0,0,1,0,1Z"/><path d="M23.5,15H.5a.5.5,0,0,1,0-1h23a.5.5,0,0,1,0,1Z"/><path d="M22.5,18H1.5A1.5,1.5,0,0,1,0,16.5V1.5A1.5,1.5,0,0,1,1.5,0h21A1.5,1.5,0,0,1,24,1.5v15A1.5,1.5,0,0,1,22.5,18ZM1.5,1a.5.5,0,0,0-.5.5v15a.5.5,0,0,0,.5.5h21a.5.5,0,0,0,.5-.5V1.5a.5.5,0,0,0-.5-.5Z"/><path class="cls-1" d="M18,7a.49.49,0,0,1-.32-.12l-2.6-2.16L13.9,6.3a.5.5,0,0,1-.8-.6l1.5-2a.52.52,0,0,1,.34-.2.51.51,0,0,1,.38.12L17.94,5.8l2.18-2.62a.5.5,0,0,1,.76.64l-2.5,3A.48.48,0,0,1,18,7Z"/><path class="cls-1" d="M19.5,12a.5.5,0,0,1-.5-.5V10a.5.5,0,0,1,1,0v1.5A.5.5,0,0,1,19.5,12Z"/><path class="cls-1" d="M17.5,12a.5.5,0,0,1-.5-.5v-2a.5.5,0,0,1,1,0v2A.5.5,0,0,1,17.5,12Z"/><path class="cls-1" d="M15.5,12a.5.5,0,0,1-.5-.5v-3a.5.5,0,0,1,1,0v3A.5.5,0,0,1,15.5,12Z"/><path class="cls-1" d="M13.5,12a.5.5,0,0,1-.5-.5V10a.5.5,0,0,1,1,0v1.5A.5.5,0,0,1,13.5,12Z"/></g></g></g></g></g></svg>